<?xml version="1.0" encoding="utf-8"?>
<!-- Generator: Adobe Illustrator 19.2.1, SVG Export Plug-In . SVG Version: 6.00 Build 0)  -->
<svg version="1.1" id="layer" xmlns="http://www.w3.org/2000/svg" xmlns:xlink="http://www.w3.org/1999/xlink" x="0px" y="0px"
	 viewBox="0 0 652 652" style="enable-background:new 0 0 652 652;" xml:space="preserve">
<style type="text/css">
	.st0{fill:#009BDE;}
	.st1{fill:#919093;}
	.st2{fill:#4E9D2D;}
	.st3{fill:#646569;}
</style>
<rect x="242.4" y="196.1" class="st0" width="378" height="63"/>
<rect x="20.4" y="196.1" class="st1" width="48" height="63"/>
<rect x="95.4" y="196.1" class="st2" width="120" height="63"/>
<g>
	<path class="st3" d="M346.3,353.3c0-14.8-5-26.8-14.6-34.4c-9.8-7.8-21.2-9.7-38.1-9.7h-51.3V446h27.8V333.9h24.5
		c6.9,0,12,0.9,15.3,2.9c4.9,2.9,7.8,8.2,7.8,16.6c0,14.3-8.8,19.3-20.3,19.3h-18.5v24.8H290l29,48.7h32.2l-32.2-53.3
		C337.7,387.3,346.3,371.7,346.3,353.3"/>
	<path class="st3" d="M430.7,368.6c-19.7-6.8-42-7.6-42-22.6c0-9.6,8.8-14.1,21.3-14.1c12.3,0,23.2,1.1,41.7,6v-24.8
		c-15.9-4.5-27.4-6.1-42.4-6.1c-27.1,0-50,10.8-50,38.3c0,21.7,10.8,32.7,32.2,40c19,6.5,40.5,7.8,40.5,22.5
		c0,11-10.7,15.6-26.1,15.6c-15,0-24.4-1.2-43.5-6.3V442c16,4.8,29.4,6.1,45,6.1c34,0,53.9-14.8,53.9-42.3
		C461.2,384,447,374.2,430.7,368.6"/>
	<polygon class="st3" points="584,309.2 535.2,446.1 561.7,446.1 592.7,359.1 593.1,359.1 593.1,446.1 620.4,446.1 620.4,309.2 	"/>
	<polygon class="st3" points="544.7,394.4 512.8,309.2 475.9,309.2 475.9,446 502.9,446 502.9,359.1 503.3,359.1 530.9,432.9 	"/>
</g>
<rect x="242.4" y="196.1" class="st0" width="378" height="63"/>
<rect x="20.4" y="196.1" class="st1" width="48" height="63"/>
<rect x="95.4" y="196.1" class="st2" width="120" height="63"/>
<g>
	<path class="st3" d="M346.3,353.3c0-14.8-5-26.8-14.6-34.4c-9.8-7.8-21.2-9.7-38.1-9.7h-51.3V446h27.8V333.9h24.5
		c6.9,0,12,0.9,15.3,2.9c4.9,2.9,7.8,8.2,7.8,16.6c0,14.3-8.8,19.3-20.3,19.3h-18.5v24.8H290l29,48.7h32.2l-32.2-53.3
		C337.7,387.3,346.3,371.7,346.3,353.3"/>
	<path class="st3" d="M430.7,368.6c-19.7-6.8-42-7.6-42-22.6c0-9.6,8.8-14.1,21.3-14.1c12.3,0,23.2,1.1,41.7,6v-24.8
		c-15.9-4.5-27.4-6.1-42.4-6.1c-27.1,0-50,10.8-50,38.3c0,21.7,10.8,32.7,32.2,40c19,6.5,40.5,7.8,40.5,22.5
		c0,11-10.7,15.6-26.1,15.6c-15,0-24.4-1.2-43.5-6.3V442c16,4.8,29.4,6.1,45,6.1c34,0,53.9-14.8,53.9-42.3
		C461.2,384,447,374.2,430.7,368.6"/>
	<polygon class="st3" points="584,309.2 535.2,446.1 561.7,446.1 592.7,359.1 593.1,359.1 593.1,446.1 620.4,446.1 620.4,309.2 	"/>
	<polygon class="st3" points="544.7,394.4 512.8,309.2 475.9,309.2 475.9,446 502.9,446 502.9,359.1 503.3,359.1 530.9,432.9 	"/>
</g>
</svg>
